<svg width="689" height="113" viewBox="0 0 689 113" fill="none" xmlns="http://www.w3.org/2000/svg">
<g clip-path="url(#clip0_106_52)">
<path d="M0 81.0566V33.0576C0 32.3437 0.288244 32.0571 1.00613 32.0571H7.83152C8.90836 32.0571 9.55554 32.1977 10.0559 33.2739L25.0663 64.7739H25.4253L40.2236 33.4199C40.7239 32.2788 41.3004 32.0625 42.3772 32.0625H49.2733C49.9205 32.0625 50.2088 32.3491 50.2088 33.063V81.062C50.2088 81.7758 49.9205 82.0624 49.2733 82.0624H44.8899C44.172 82.0624 43.8837 81.7758 43.8837 81.062V40.2769H43.5248L28.0086 72.918C27.7203 73.6318 27.3614 73.9184 26.5021 73.9184H23.7012C22.8365 73.9184 22.5537 73.6318 22.1948 72.8477L6.60785 40.2769H6.2489V81.062C6.2489 81.7758 5.96066 82.0624 5.24277 82.0624H1.00613C0.288244 82.0624 0 81.7758 0 81.062V81.0566Z" fill="white"/>
<path d="M61.6353 81.1269L80.0938 32.9873C80.3114 32.3437 80.741 32.0571 81.3882 32.0571H86.9192C87.6371 32.0571 87.996 32.3437 88.2843 32.9873L106.743 81.1269C106.96 81.7704 106.743 82.057 106.096 82.057H101.141C100.494 82.057 100.064 81.7704 99.8466 81.1269L94.9628 67.5589H73.3391L68.3846 81.1269C68.167 81.7704 67.8081 82.057 67.0902 82.057H62.2064C61.5592 82.057 61.3417 81.7704 61.6299 81.1269H61.6353ZM92.5971 60.9885L84.4827 38.5626H83.9824L75.7919 60.9885H92.6025H92.5971Z" fill="white"/>
<path d="M118.098 81.0566L118.027 33.0576C118.027 32.3437 118.316 32.0571 119.033 32.0571H137.998C149.848 32.0571 154.732 38.8438 154.732 47.3394C154.732 56.4839 149.06 62.481 138.139 62.5513L152.149 80.8349C152.579 81.4081 152.29 82.0516 151.719 82.0516H146.765C146.047 82.0516 145.617 81.8353 145.182 81.2675L130.89 62.6973C130.531 62.1998 130.242 61.7672 130.242 61.2697V58.0575C130.242 57.3437 130.531 57.0571 131.248 57.0571H136.35C144.181 57.0571 148.347 54.1261 148.347 47.626C148.347 41.1259 144.111 38.5572 137.503 38.5572H124.358V81.0566C124.358 81.7704 124.07 82.057 123.422 82.057H119.039C118.392 82.057 118.103 81.7704 118.103 81.0566H118.098Z" fill="white"/>
<path d="M162.493 81.1269L180.951 32.9873C181.169 32.3437 181.598 32.0571 182.246 32.0571H187.777C188.495 32.0571 188.853 32.3437 189.142 32.9873L207.6 81.1269C207.818 81.7704 207.6 82.057 206.953 82.057H201.998C201.351 82.057 200.922 81.7704 200.704 81.1269L195.82 67.5589H174.197L169.242 81.1269C169.024 81.7704 168.666 82.057 167.948 82.057H163.064C162.417 82.057 162.199 81.7704 162.487 81.1269H162.493ZM193.454 60.9885L185.34 38.5626H184.84L176.649 60.9885H193.46H193.454Z" fill="white"/>
<path d="M226.428 81.0566V39.0601H209.547C208.829 39.0601 208.541 38.7735 208.541 38.0597V33.0576C208.541 32.3437 208.829 32.0571 209.547 32.0571H249.629C250.347 32.0571 250.635 32.3437 250.635 33.0576V38.0597C250.635 38.7735 250.347 39.0601 249.629 39.0601H232.748V81.0566C232.748 81.7704 232.46 82.057 231.742 82.057H227.435C226.717 82.057 226.428 81.7704 226.428 81.0566Z" fill="white"/>
<path d="M257.031 57.057C257.031 40.1308 267.876 31.2026 282.315 31.2026C296.754 31.2026 307.599 40.0605 307.599 57.057C307.599 74.0535 296.608 82.9114 282.315 82.9114C268.023 82.9114 257.031 73.9832 257.031 57.057ZM301.209 57.057C301.209 44.1271 292.877 38.2002 282.315 38.2002C271.753 38.2002 263.422 44.1271 263.422 57.057C263.422 69.9869 271.753 75.9138 282.315 75.9138C292.877 75.9138 301.209 69.9869 301.209 57.057Z" fill="white"/>
<path d="M321.038 81.0566V33.0576C321.038 32.3437 321.326 32.0571 322.044 32.0571H327.358C328.505 32.0571 329.152 32.1274 329.946 33.4145L354.153 70.1276H354.583V33.0576C354.583 32.3437 354.871 32.0571 355.519 32.0571H359.614C360.332 32.0571 360.62 32.3437 360.62 33.0576V81.0566C360.62 81.7704 360.332 82.057 359.614 82.057H355.306C354.23 82.057 353.8 81.9164 353.082 80.6997L327.581 41.9857H327.08V81.0566C327.08 81.7704 326.792 82.057 326.145 82.057H322.05C321.332 82.057 321.044 81.7704 321.044 81.0566H321.038Z" fill="white"/>
<path d="M371.97 81.1269L390.429 32.9873C390.646 32.3437 391.076 32.0571 391.723 32.0571H397.254C397.972 32.0571 398.331 32.3437 398.619 32.9873L417.078 81.1269C417.295 81.7704 417.078 82.057 416.431 82.057H411.476C410.829 82.057 410.399 81.7704 410.182 81.1269L405.298 67.5589H383.674L378.72 81.1269C378.502 81.7704 378.143 82.057 377.425 82.057H372.541C371.894 82.057 371.677 81.7704 371.965 81.1269H371.97ZM402.932 60.9885L394.818 38.5626H394.317L386.127 60.9885H402.937H402.932Z" fill="white"/>
<path d="M487.6 113C461.321 113 442.242 96.3117 442.242 73.3235C442.242 62.5242 446.381 53.2932 456.535 41.4719L492.446 0H532.37L500.152 36.4319C512.748 38.887 522.26 44.7111 527.736 53.3473L525.925 54.4829C520.519 45.9549 510.833 40.3255 497.922 38.1948L496.019 37.8812L527.633 2.13065H493.43L458.161 42.8563C448.246 54.4018 444.385 62.946 444.385 73.3235C444.385 95.4303 462.153 110.869 487.6 110.869C504.204 110.869 517.947 104.083 525.3 92.2505L527.122 93.3699C519.372 105.846 504.965 113 487.6 113ZM487.6 86.3074C479.67 86.3074 474.128 80.5752 474.128 72.3717C474.128 64.1682 479.665 58.436 487.6 58.436C495.535 58.436 501.071 64.0384 501.071 72.3717C501.071 80.705 495.66 86.3074 487.6 86.3074ZM487.6 60.5666C480.823 60.5666 476.271 65.3092 476.271 72.3717C476.271 79.4342 480.823 84.1768 487.6 84.1768C494.376 84.1768 498.928 79.4342 498.928 72.3717C498.928 65.3092 494.376 60.5666 487.6 60.5666Z" fill="#FF6600"/>
<path d="M651.023 111.54H616.178L645.253 29.2288H627.306L624.086 37.9352H599.085L609.456 0H689.001L651.023 111.54ZM619.202 109.409H649.489L686.009 2.13065H611.093L601.886 35.7992H622.59L625.81 27.0927H648.277L619.202 109.404V109.409Z" fill="#FF6600"/>
<path d="M542.562 80.6022C544.939 80.5913 547.18 79.6234 549.611 77.7523L556.393 85.0635C552.428 88.6002 547.555 90.7957 541.393 90.8228C530.733 90.8768 524.147 84.712 524.104 75.5784C524.049 64.9738 531.957 54.326 545.32 54.2611C556.882 54.2016 560.776 61.9779 560.814 69.327C560.825 71.6253 560.45 73.8641 559.819 75.8488L537.276 75.9623C537.483 78.7743 539.288 80.6184 542.568 80.6022H542.562ZM548.028 69.5217C548.218 69.008 548.278 68.4996 548.278 67.9859C548.267 66.0716 546.848 64.287 544.471 64.2978C542.285 64.3087 539.468 65.666 538.141 69.5704L548.033 69.5217H548.028Z" fill="white"/>
<path d="M568.178 54.9804L582.759 54.9047L581.687 58.9983C583.988 56.3647 587.572 54.0448 591.939 54.0232C596.757 54.0016 599.721 56.4134 601.027 59.7284C602.267 57.7762 605.405 53.915 613.878 53.915C620.654 53.915 624.026 59.4093 624.026 64.406C624.026 66.196 623.727 68.305 623.156 70.4194L616.82 89.6115L603.164 89.6872L608.532 72.2851C608.782 71.3874 608.907 70.3708 608.902 69.6624C608.891 67.8075 608.048 66.6016 605.932 66.6124C603.3 66.6232 601.636 68.4889 600.63 72.323L595.262 89.725L580.681 89.8008L586.049 72.3987C586.299 71.501 586.424 70.4843 586.419 69.7759C586.408 67.9211 585.565 66.7151 583.449 66.726C580.817 66.7368 579.153 68.6024 578.147 72.4365L572.779 89.8386L558.965 89.9143L568.167 54.9858L568.178 54.9804Z" fill="white"/>
</g>
<defs>
<clipPath id="clip0_106_52">
<rect width="689" height="113" fill="white"/>
</clipPath>
</defs>
</svg>
